<mxfile host="app.diagrams.net" modified="2022-05-10T09:18:40.653Z" agent="5.0 (Macintosh; Intel Mac OS X 10_15_7) AppleWebKit/537.36 (KHTML, like Gecko) Chrome/100.0.4896.57 Whale/3.14.133.23 Safari/537.36" etag="vWdouFK8ixgn0xvusiYZ" version="17.4.5" type="github">
  <diagram name="Page-1" id="c7488fd3-1785-93aa-aadb-54a6760d102a">
    <mxGraphModel dx="1150" dy="641" grid="1" gridSize="10" guides="1" tooltips="1" connect="1" arrows="1" fold="1" page="1" pageScale="1" pageWidth="1100" pageHeight="850" background="none" math="0" shadow="0">
      <root>
        <mxCell id="0" />
        <mxCell id="1" parent="0" />
        <mxCell id="2b4e8129b02d487f-1" value="ablestack" style="swimlane;html=1;childLayout=stackLayout;horizontal=1;startSize=20;horizontalStack=0;rounded=0;shadow=0;labelBackgroundColor=none;strokeWidth=1;fontFamily=Verdana;fontSize=8;align=center;" parent="1" vertex="1">
          <mxGeometry x="180" y="70" width="1030" height="620" as="geometry">
            <mxRectangle x="180" y="70" width="60" height="20" as="alternateBounds" />
          </mxGeometry>
        </mxCell>
        <mxCell id="2b4e8129b02d487f-2" value="cube" style="swimlane;html=1;startSize=20;horizontal=0;" parent="2b4e8129b02d487f-1" vertex="1">
          <mxGeometry y="20" width="1030" height="150" as="geometry" />
        </mxCell>
        <mxCell id="9xGdDW2D4IcT9bwGRpSL-6" style="edgeStyle=orthogonalEdgeStyle;rounded=0;orthogonalLoop=1;jettySize=auto;html=1;entryX=0;entryY=0.5;entryDx=0;entryDy=0;" edge="1" parent="2b4e8129b02d487f-2" source="2b4e8129b02d487f-6" target="9xGdDW2D4IcT9bwGRpSL-4">
          <mxGeometry relative="1" as="geometry" />
        </mxCell>
        <mxCell id="2b4e8129b02d487f-6" value="ablecloud-team/ablestack-cockpit-plugin" style="rounded=1;whiteSpace=wrap;html=1;shadow=0;labelBackgroundColor=none;strokeWidth=1;fontFamily=Verdana;fontSize=8;align=center;" parent="2b4e8129b02d487f-2" vertex="1">
          <mxGeometry x="66" y="100" width="240" height="37" as="geometry" />
        </mxCell>
        <mxCell id="9xGdDW2D4IcT9bwGRpSL-2" style="edgeStyle=orthogonalEdgeStyle;rounded=0;orthogonalLoop=1;jettySize=auto;html=1;entryX=0;entryY=0.5;entryDx=0;entryDy=0;" edge="1" parent="2b4e8129b02d487f-2" source="2b4e8129b02d487f-7" target="2b4e8129b02d487f-9">
          <mxGeometry relative="1" as="geometry" />
        </mxCell>
        <mxCell id="2b4e8129b02d487f-7" value="ablecloud-team/ablestack-cockpit" style="rounded=1;whiteSpace=wrap;html=1;shadow=0;labelBackgroundColor=none;strokeWidth=1;fontFamily=Verdana;fontSize=8;align=center;" parent="2b4e8129b02d487f-2" vertex="1">
          <mxGeometry x="66" y="23" width="240" height="37" as="geometry" />
        </mxCell>
        <mxCell id="9xGdDW2D4IcT9bwGRpSL-3" value="" style="edgeStyle=orthogonalEdgeStyle;rounded=0;orthogonalLoop=1;jettySize=auto;html=1;" edge="1" parent="2b4e8129b02d487f-2" source="2b4e8129b02d487f-9" target="2b4e8129b02d487f-11">
          <mxGeometry relative="1" as="geometry" />
        </mxCell>
        <mxCell id="2b4e8129b02d487f-9" value="Build" style="rounded=1;whiteSpace=wrap;html=1;shadow=0;labelBackgroundColor=none;strokeWidth=1;fontFamily=Verdana;fontSize=8;align=center;" parent="2b4e8129b02d487f-2" vertex="1">
          <mxGeometry x="356" y="22.99999999999997" width="70" height="37" as="geometry" />
        </mxCell>
        <mxCell id="2b4e8129b02d487f-11" value="ablestack-cockpit.rpm" style="ellipse;whiteSpace=wrap;html=1;rounded=0;shadow=0;labelBackgroundColor=none;strokeWidth=2;fontFamily=Verdana;fontSize=8;align=center;" parent="2b4e8129b02d487f-2" vertex="1">
          <mxGeometry x="476" y="19.75" width="163" height="43.5" as="geometry" />
        </mxCell>
        <mxCell id="9xGdDW2D4IcT9bwGRpSL-7" style="edgeStyle=orthogonalEdgeStyle;rounded=0;orthogonalLoop=1;jettySize=auto;html=1;entryX=0;entryY=0.5;entryDx=0;entryDy=0;" edge="1" parent="2b4e8129b02d487f-2" source="9xGdDW2D4IcT9bwGRpSL-4" target="9xGdDW2D4IcT9bwGRpSL-5">
          <mxGeometry relative="1" as="geometry" />
        </mxCell>
        <mxCell id="9xGdDW2D4IcT9bwGRpSL-4" value="Build" style="rounded=1;whiteSpace=wrap;html=1;shadow=0;labelBackgroundColor=none;strokeWidth=1;fontFamily=Verdana;fontSize=8;align=center;" vertex="1" parent="2b4e8129b02d487f-2">
          <mxGeometry x="356" y="99.99999999999997" width="70" height="37" as="geometry" />
        </mxCell>
        <mxCell id="9xGdDW2D4IcT9bwGRpSL-5" value="ablestack-cockpit-plugin.rpm" style="ellipse;whiteSpace=wrap;html=1;rounded=0;shadow=0;labelBackgroundColor=none;strokeWidth=2;fontFamily=Verdana;fontSize=8;align=center;" vertex="1" parent="2b4e8129b02d487f-2">
          <mxGeometry x="476" y="96.75" width="165" height="43.5" as="geometry" />
        </mxCell>
        <mxCell id="2b4e8129b02d487f-3" value="glue" style="swimlane;html=1;startSize=20;horizontal=0;" parent="2b4e8129b02d487f-1" vertex="1">
          <mxGeometry y="170" width="1030" height="150" as="geometry" />
        </mxCell>
        <mxCell id="2b4e8129b02d487f-26" style="edgeStyle=orthogonalEdgeStyle;rounded=0;html=1;labelBackgroundColor=none;startArrow=none;startFill=0;startSize=5;endArrow=classicThin;endFill=1;endSize=5;jettySize=auto;orthogonalLoop=1;strokeWidth=1;fontFamily=Verdana;fontSize=8" parent="2b4e8129b02d487f-3" target="2b4e8129b02d487f-13" edge="1">
          <mxGeometry relative="1" as="geometry">
            <mxPoint x="190" y="68.5" as="sourcePoint" />
          </mxGeometry>
        </mxCell>
        <mxCell id="9xGdDW2D4IcT9bwGRpSL-11" style="edgeStyle=orthogonalEdgeStyle;rounded=0;orthogonalLoop=1;jettySize=auto;html=1;entryX=0;entryY=0.5;entryDx=0;entryDy=0;" edge="1" parent="2b4e8129b02d487f-3" source="9xGdDW2D4IcT9bwGRpSL-8" target="9xGdDW2D4IcT9bwGRpSL-9">
          <mxGeometry relative="1" as="geometry" />
        </mxCell>
        <mxCell id="9xGdDW2D4IcT9bwGRpSL-8" value="ablecloud-team/ablestack-ceph" style="rounded=1;whiteSpace=wrap;html=1;shadow=0;labelBackgroundColor=none;strokeWidth=1;fontFamily=Verdana;fontSize=8;align=center;" vertex="1" parent="2b4e8129b02d487f-3">
          <mxGeometry x="61.5" y="21.5" width="240" height="37" as="geometry" />
        </mxCell>
        <mxCell id="9xGdDW2D4IcT9bwGRpSL-12" style="edgeStyle=orthogonalEdgeStyle;rounded=0;orthogonalLoop=1;jettySize=auto;html=1;entryX=0;entryY=0.5;entryDx=0;entryDy=0;" edge="1" parent="2b4e8129b02d487f-3" source="9xGdDW2D4IcT9bwGRpSL-9" target="9xGdDW2D4IcT9bwGRpSL-10">
          <mxGeometry relative="1" as="geometry" />
        </mxCell>
        <mxCell id="9xGdDW2D4IcT9bwGRpSL-9" value="Build" style="rounded=1;whiteSpace=wrap;html=1;shadow=0;labelBackgroundColor=none;strokeWidth=1;fontFamily=Verdana;fontSize=8;align=center;" vertex="1" parent="2b4e8129b02d487f-3">
          <mxGeometry x="351.5" y="21.5" width="70" height="37" as="geometry" />
        </mxCell>
        <mxCell id="9xGdDW2D4IcT9bwGRpSL-21" style="edgeStyle=orthogonalEdgeStyle;rounded=0;orthogonalLoop=1;jettySize=auto;html=1;entryX=0;entryY=0.5;entryDx=0;entryDy=0;" edge="1" parent="2b4e8129b02d487f-3" source="9xGdDW2D4IcT9bwGRpSL-10" target="9xGdDW2D4IcT9bwGRpSL-20">
          <mxGeometry relative="1" as="geometry" />
        </mxCell>
        <mxCell id="9xGdDW2D4IcT9bwGRpSL-10" value="ablestack-ceph.rpm" style="ellipse;whiteSpace=wrap;html=1;rounded=0;shadow=0;labelBackgroundColor=none;strokeWidth=2;fontFamily=Verdana;fontSize=8;align=center;" vertex="1" parent="2b4e8129b02d487f-3">
          <mxGeometry x="471.5" y="18.25" width="163" height="43.5" as="geometry" />
        </mxCell>
        <mxCell id="9xGdDW2D4IcT9bwGRpSL-20" value="ablecloud repo에 업로드" style="rounded=1;whiteSpace=wrap;html=1;shadow=0;labelBackgroundColor=none;strokeWidth=1;fontFamily=Verdana;fontSize=8;align=center;" vertex="1" parent="2b4e8129b02d487f-3">
          <mxGeometry x="675.5" y="21.5" width="130" height="37" as="geometry" />
        </mxCell>
        <mxCell id="9xGdDW2D4IcT9bwGRpSL-22" value="ablecloud-team/ablestack-storage" style="rounded=1;whiteSpace=wrap;html=1;shadow=0;labelBackgroundColor=none;strokeWidth=1;fontFamily=Verdana;fontSize=8;align=center;" vertex="1" parent="2b4e8129b02d487f-3">
          <mxGeometry x="61.5" y="91.5" width="240" height="37" as="geometry" />
        </mxCell>
        <mxCell id="9xGdDW2D4IcT9bwGRpSL-23" value="exec" style="rounded=1;whiteSpace=wrap;html=1;shadow=0;labelBackgroundColor=none;strokeWidth=1;fontFamily=Verdana;fontSize=8;align=center;" vertex="1" parent="2b4e8129b02d487f-3">
          <mxGeometry x="351.5" y="91.5" width="70" height="37" as="geometry" />
        </mxCell>
        <mxCell id="9xGdDW2D4IcT9bwGRpSL-24" value="컨테이너 이미지" style="ellipse;whiteSpace=wrap;html=1;rounded=0;shadow=0;labelBackgroundColor=none;strokeWidth=2;fontFamily=Verdana;fontSize=8;align=center;" vertex="1" parent="2b4e8129b02d487f-3">
          <mxGeometry x="465.5" y="88.25" width="163" height="43.5" as="geometry" />
        </mxCell>
        <mxCell id="9xGdDW2D4IcT9bwGRpSL-30" value="tar 파일로 저장" style="rounded=1;whiteSpace=wrap;html=1;shadow=0;labelBackgroundColor=none;strokeWidth=1;fontFamily=Verdana;fontSize=8;align=center;" vertex="1" parent="2b4e8129b02d487f-3">
          <mxGeometry x="655.5" y="91.5" width="100" height="37" as="geometry" />
        </mxCell>
        <mxCell id="9xGdDW2D4IcT9bwGRpSL-34" value="glue.tar" style="ellipse;whiteSpace=wrap;html=1;rounded=0;shadow=0;labelBackgroundColor=none;strokeWidth=2;fontFamily=Verdana;fontSize=8;align=center;" vertex="1" parent="2b4e8129b02d487f-3">
          <mxGeometry x="805.5" y="88.25" width="163" height="43.5" as="geometry" />
        </mxCell>
        <mxCell id="9xGdDW2D4IcT9bwGRpSL-25" style="edgeStyle=orthogonalEdgeStyle;rounded=0;orthogonalLoop=1;jettySize=auto;html=1;entryX=0.5;entryY=1;entryDx=0;entryDy=0;" edge="1" parent="2b4e8129b02d487f-3" source="9xGdDW2D4IcT9bwGRpSL-23" target="9xGdDW2D4IcT9bwGRpSL-20">
          <mxGeometry relative="1" as="geometry">
            <Array as="points">
              <mxPoint x="391" y="80" />
              <mxPoint x="745" y="80" />
              <mxPoint x="745" y="59" />
            </Array>
          </mxGeometry>
        </mxCell>
        <mxCell id="9xGdDW2D4IcT9bwGRpSL-27" value="repo 사이트 설정" style="edgeLabel;html=1;align=center;verticalAlign=middle;resizable=0;points=[];" vertex="1" connectable="0" parent="9xGdDW2D4IcT9bwGRpSL-25">
          <mxGeometry x="-0.1405" y="2" relative="1" as="geometry">
            <mxPoint as="offset" />
          </mxGeometry>
        </mxCell>
        <mxCell id="9xGdDW2D4IcT9bwGRpSL-26" style="edgeStyle=orthogonalEdgeStyle;rounded=0;orthogonalLoop=1;jettySize=auto;html=1;" edge="1" parent="2b4e8129b02d487f-3" source="9xGdDW2D4IcT9bwGRpSL-22" target="9xGdDW2D4IcT9bwGRpSL-23">
          <mxGeometry relative="1" as="geometry" />
        </mxCell>
        <mxCell id="9xGdDW2D4IcT9bwGRpSL-28" value="" style="edgeStyle=orthogonalEdgeStyle;rounded=0;orthogonalLoop=1;jettySize=auto;html=1;" edge="1" parent="2b4e8129b02d487f-3" source="9xGdDW2D4IcT9bwGRpSL-23" target="9xGdDW2D4IcT9bwGRpSL-24">
          <mxGeometry relative="1" as="geometry" />
        </mxCell>
        <mxCell id="9xGdDW2D4IcT9bwGRpSL-31" value="" style="edgeStyle=orthogonalEdgeStyle;rounded=0;orthogonalLoop=1;jettySize=auto;html=1;" edge="1" parent="2b4e8129b02d487f-3" source="9xGdDW2D4IcT9bwGRpSL-24" target="9xGdDW2D4IcT9bwGRpSL-30">
          <mxGeometry relative="1" as="geometry" />
        </mxCell>
        <mxCell id="9xGdDW2D4IcT9bwGRpSL-35" style="edgeStyle=orthogonalEdgeStyle;rounded=0;orthogonalLoop=1;jettySize=auto;html=1;entryX=0;entryY=0.5;entryDx=0;entryDy=0;" edge="1" parent="2b4e8129b02d487f-3" source="9xGdDW2D4IcT9bwGRpSL-30" target="9xGdDW2D4IcT9bwGRpSL-34">
          <mxGeometry relative="1" as="geometry" />
        </mxCell>
        <mxCell id="9xGdDW2D4IcT9bwGRpSL-46" value="mold" style="swimlane;html=1;startSize=20;horizontal=0;" vertex="1" parent="2b4e8129b02d487f-1">
          <mxGeometry y="320" width="1030" height="150" as="geometry">
            <mxRectangle y="320" width="1030" height="20" as="alternateBounds" />
          </mxGeometry>
        </mxCell>
        <mxCell id="9xGdDW2D4IcT9bwGRpSL-47" style="edgeStyle=orthogonalEdgeStyle;rounded=0;orthogonalLoop=1;jettySize=auto;html=1;" edge="1" parent="9xGdDW2D4IcT9bwGRpSL-46" source="9xGdDW2D4IcT9bwGRpSL-48" target="9xGdDW2D4IcT9bwGRpSL-50">
          <mxGeometry relative="1" as="geometry" />
        </mxCell>
        <mxCell id="9xGdDW2D4IcT9bwGRpSL-48" value="ablecloud-team/ablecloud-cloud" style="rounded=1;whiteSpace=wrap;html=1;shadow=0;labelBackgroundColor=none;strokeWidth=1;fontFamily=Verdana;fontSize=8;align=center;" vertex="1" parent="9xGdDW2D4IcT9bwGRpSL-46">
          <mxGeometry x="66" y="57" width="240" height="37" as="geometry" />
        </mxCell>
        <mxCell id="9xGdDW2D4IcT9bwGRpSL-49" value="" style="edgeStyle=orthogonalEdgeStyle;rounded=0;orthogonalLoop=1;jettySize=auto;html=1;" edge="1" parent="9xGdDW2D4IcT9bwGRpSL-46" source="9xGdDW2D4IcT9bwGRpSL-50" target="9xGdDW2D4IcT9bwGRpSL-52">
          <mxGeometry relative="1" as="geometry" />
        </mxCell>
        <mxCell id="9xGdDW2D4IcT9bwGRpSL-50" value="Build" style="rounded=1;whiteSpace=wrap;html=1;shadow=0;labelBackgroundColor=none;strokeWidth=1;fontFamily=Verdana;fontSize=8;align=center;" vertex="1" parent="9xGdDW2D4IcT9bwGRpSL-46">
          <mxGeometry x="356" y="57" width="70" height="37" as="geometry" />
        </mxCell>
        <mxCell id="9xGdDW2D4IcT9bwGRpSL-51" value="" style="edgeStyle=orthogonalEdgeStyle;rounded=0;orthogonalLoop=1;jettySize=auto;html=1;" edge="1" parent="9xGdDW2D4IcT9bwGRpSL-46" source="9xGdDW2D4IcT9bwGRpSL-52" target="9xGdDW2D4IcT9bwGRpSL-54">
          <mxGeometry relative="1" as="geometry" />
        </mxCell>
        <mxCell id="9xGdDW2D4IcT9bwGRpSL-52" value="ooo.jar" style="ellipse;whiteSpace=wrap;html=1;rounded=0;shadow=0;labelBackgroundColor=none;strokeWidth=2;fontFamily=Verdana;fontSize=8;align=center;" vertex="1" parent="9xGdDW2D4IcT9bwGRpSL-46">
          <mxGeometry x="470" y="53.75" width="163" height="43.5" as="geometry" />
        </mxCell>
        <mxCell id="9xGdDW2D4IcT9bwGRpSL-53" style="edgeStyle=orthogonalEdgeStyle;rounded=0;orthogonalLoop=1;jettySize=auto;html=1;entryX=0;entryY=0.5;entryDx=0;entryDy=0;" edge="1" parent="9xGdDW2D4IcT9bwGRpSL-46" source="9xGdDW2D4IcT9bwGRpSL-54" target="9xGdDW2D4IcT9bwGRpSL-55">
          <mxGeometry relative="1" as="geometry" />
        </mxCell>
        <mxCell id="9xGdDW2D4IcT9bwGRpSL-54" value="source package" style="rounded=1;whiteSpace=wrap;html=1;shadow=0;labelBackgroundColor=none;strokeWidth=1;fontFamily=Verdana;fontSize=8;align=center;" vertex="1" parent="9xGdDW2D4IcT9bwGRpSL-46">
          <mxGeometry x="660" y="57" width="100" height="37" as="geometry" />
        </mxCell>
        <mxCell id="9xGdDW2D4IcT9bwGRpSL-55" value="mold-oooo.rpm" style="ellipse;whiteSpace=wrap;html=1;rounded=0;shadow=0;labelBackgroundColor=none;strokeWidth=2;fontFamily=Verdana;fontSize=8;align=center;" vertex="1" parent="9xGdDW2D4IcT9bwGRpSL-46">
          <mxGeometry x="810" y="53.75" width="163" height="43.5" as="geometry" />
        </mxCell>
        <mxCell id="9xGdDW2D4IcT9bwGRpSL-56" value="wall" style="swimlane;html=1;startSize=20;horizontal=0;" vertex="1" parent="2b4e8129b02d487f-1">
          <mxGeometry y="470" width="1030" height="150" as="geometry">
            <mxRectangle y="320" width="1030" height="20" as="alternateBounds" />
          </mxGeometry>
        </mxCell>
        <mxCell id="9xGdDW2D4IcT9bwGRpSL-57" style="edgeStyle=orthogonalEdgeStyle;rounded=0;orthogonalLoop=1;jettySize=auto;html=1;" edge="1" parent="9xGdDW2D4IcT9bwGRpSL-56" source="9xGdDW2D4IcT9bwGRpSL-58" target="9xGdDW2D4IcT9bwGRpSL-60">
          <mxGeometry relative="1" as="geometry" />
        </mxCell>
        <mxCell id="9xGdDW2D4IcT9bwGRpSL-58" value="ablecloud-team/ablecloud-wall" style="rounded=1;whiteSpace=wrap;html=1;shadow=0;labelBackgroundColor=none;strokeWidth=1;fontFamily=Verdana;fontSize=8;align=center;" vertex="1" parent="9xGdDW2D4IcT9bwGRpSL-56">
          <mxGeometry x="66" y="23.25" width="240" height="37" as="geometry" />
        </mxCell>
        <mxCell id="9xGdDW2D4IcT9bwGRpSL-59" value="" style="edgeStyle=orthogonalEdgeStyle;rounded=0;orthogonalLoop=1;jettySize=auto;html=1;" edge="1" parent="9xGdDW2D4IcT9bwGRpSL-56" source="9xGdDW2D4IcT9bwGRpSL-60" target="9xGdDW2D4IcT9bwGRpSL-62">
          <mxGeometry relative="1" as="geometry" />
        </mxCell>
        <mxCell id="9xGdDW2D4IcT9bwGRpSL-60" value="Build" style="rounded=1;whiteSpace=wrap;html=1;shadow=0;labelBackgroundColor=none;strokeWidth=1;fontFamily=Verdana;fontSize=8;align=center;" vertex="1" parent="9xGdDW2D4IcT9bwGRpSL-56">
          <mxGeometry x="356" y="23.25" width="70" height="37" as="geometry" />
        </mxCell>
        <mxCell id="9xGdDW2D4IcT9bwGRpSL-61" value="" style="edgeStyle=orthogonalEdgeStyle;rounded=0;orthogonalLoop=1;jettySize=auto;html=1;" edge="1" parent="9xGdDW2D4IcT9bwGRpSL-56" source="9xGdDW2D4IcT9bwGRpSL-62" target="9xGdDW2D4IcT9bwGRpSL-64">
          <mxGeometry relative="1" as="geometry" />
        </mxCell>
        <mxCell id="9xGdDW2D4IcT9bwGRpSL-62" value="grafana/ 폴더 생성" style="ellipse;whiteSpace=wrap;html=1;rounded=0;shadow=0;labelBackgroundColor=none;strokeWidth=2;fontFamily=Verdana;fontSize=8;align=center;" vertex="1" parent="9xGdDW2D4IcT9bwGRpSL-56">
          <mxGeometry x="470" y="20" width="163" height="43.5" as="geometry" />
        </mxCell>
        <mxCell id="9xGdDW2D4IcT9bwGRpSL-63" style="edgeStyle=orthogonalEdgeStyle;rounded=0;orthogonalLoop=1;jettySize=auto;html=1;entryX=0;entryY=0.5;entryDx=0;entryDy=0;" edge="1" parent="9xGdDW2D4IcT9bwGRpSL-56" source="9xGdDW2D4IcT9bwGRpSL-64" target="9xGdDW2D4IcT9bwGRpSL-65">
          <mxGeometry relative="1" as="geometry" />
        </mxCell>
        <mxCell id="9xGdDW2D4IcT9bwGRpSL-64" value="source package" style="rounded=1;whiteSpace=wrap;html=1;shadow=0;labelBackgroundColor=none;strokeWidth=1;fontFamily=Verdana;fontSize=8;align=center;" vertex="1" parent="9xGdDW2D4IcT9bwGRpSL-56">
          <mxGeometry x="660" y="23.25" width="100" height="37" as="geometry" />
        </mxCell>
        <mxCell id="9xGdDW2D4IcT9bwGRpSL-65" value="mold-oooo.rpm" style="ellipse;whiteSpace=wrap;html=1;rounded=0;shadow=0;labelBackgroundColor=none;strokeWidth=2;fontFamily=Verdana;fontSize=8;align=center;" vertex="1" parent="9xGdDW2D4IcT9bwGRpSL-56">
          <mxGeometry x="810" y="20" width="163" height="43.5" as="geometry" />
        </mxCell>
        <mxCell id="9xGdDW2D4IcT9bwGRpSL-66" value="ablecloud-team/ablecloud-monitor" style="rounded=1;whiteSpace=wrap;html=1;shadow=0;labelBackgroundColor=none;strokeWidth=1;fontFamily=Verdana;fontSize=8;align=center;" vertex="1" parent="9xGdDW2D4IcT9bwGRpSL-56">
          <mxGeometry x="66" y="90" width="240" height="37" as="geometry" />
        </mxCell>
      </root>
    </mxGraphModel>
  </diagram>
</mxfile>
